<?xml version="1.0" encoding="UTF-8" standalone="no"?>
<!-- Created with Inkscape (http://www.inkscape.org/) -->

<svg
   width="210mm"
   height="297mm"
   viewBox="0 0 210 297"
   version="1.1"
   id="svg1"
   inkscape:version="1.4 (86a8ad7, 2024-10-11)"
   sodipodi:docname="broken_heart.svg"
   xmlns:inkscape="http://www.inkscape.org/namespaces/inkscape"
   xmlns:sodipodi="http://sodipodi.sourceforge.net/DTD/sodipodi-0.dtd"
   xmlns="http://www.w3.org/2000/svg"
   xmlns:svg="http://www.w3.org/2000/svg">
  <sodipodi:namedview
     id="namedview1"
     pagecolor="#ffffff"
     bordercolor="#000000"
     borderopacity="0.25"
     inkscape:showpageshadow="2"
     inkscape:pageopacity="0.0"
     inkscape:pagecheckerboard="0"
     inkscape:deskcolor="#d1d1d1"
     inkscape:document-units="mm"
     inkscape:zoom="0.68862935"
     inkscape:cx="-74.78624"
     inkscape:cy="636.77216"
     inkscape:window-width="1920"
     inkscape:window-height="991"
     inkscape:window-x="-9"
     inkscape:window-y="-9"
     inkscape:window-maximized="1"
     inkscape:current-layer="layer1" />
  <defs
     id="defs1" />
  <g
     inkscape:label="Katman 1"
     inkscape:groupmode="layer"
     id="layer1">
    <path
       id="rect2"
       style="fill:#ff0000;stroke-width:0.264583"
       d="M 80.077453,92.357027 A 35.35965,36.648144 45 0 0 55.496524,103.31811 h -5.17e-4 a 35.35965,36.648144 45 0 0 -2.27893,49.32981 l -0.141077,0.14107 17.891414,17.89142 v -6.37894 h 6.774781 v 0.0863 h 11.179162 v -26.94048 h 0.05271 v -0.13125 h 17.832503 v -23.37222 h -0.79117 v -4.3987 h 17.82889 V 92.708944 a 36.648144,35.35965 45 0 0 -18.72909,8.332816 l -0.14159,-0.14107 -10e-4,0.002 -0.005,-0.005 -0.0816,0.0817 A 35.35965,36.648144 45 0 0 80.077453,92.357027 Z m 50.544197,0.164848 v 17.024795 4.12378 0.2744 h -17.04133 v 23.37377 4.12326 0.2744 H 95.695621 v 22.67304 4.12326 0.27544 H 77.742195 v 8.66717 l 27.224695,27.22521 0.002,-0.002 0.005,0.005 51.89089,-51.89141 -0.0816,-0.0816 a 36.648144,35.35965 45 0 0 -2.33869,-49.38918 36.648144,35.35965 45 0 0 -23.82284,-10.799335 z" />
  </g>
</svg>
