<?xml version="1.0" encoding="UTF-8" standalone="no"?>
<!-- Created with Inkscape (http://www.inkscape.org/) -->

<svg
   width="210mm"
   height="297mm"
   viewBox="0 0 210 297"
   version="1.1"
   id="svg1"
   inkscape:version="1.4 (86a8ad7, 2024-10-11)"
   sodipodi:docname="t.svg"
   xmlns:inkscape="http://www.inkscape.org/namespaces/inkscape"
   xmlns:sodipodi="http://sodipodi.sourceforge.net/DTD/sodipodi-0.dtd"
   xmlns="http://www.w3.org/2000/svg"
   xmlns:svg="http://www.w3.org/2000/svg">
  <sodipodi:namedview
     id="namedview1"
     pagecolor="#ffffff"
     bordercolor="#000000"
     borderopacity="0.25"
     inkscape:showpageshadow="2"
     inkscape:pageopacity="0.0"
     inkscape:pagecheckerboard="0"
     inkscape:deskcolor="#d1d1d1"
     inkscape:document-units="mm"
     inkscape:zoom="1"
     inkscape:cx="223.5"
     inkscape:cy="776.5"
     inkscape:window-width="1920"
     inkscape:window-height="991"
     inkscape:window-x="-9"
     inkscape:window-y="-9"
     inkscape:window-maximized="1"
     inkscape:current-layer="layer1" />
  <defs
     id="defs1" />
  <g
     inkscape:label="Katman 1"
     inkscape:groupmode="layer"
     id="layer1">
    <path
       id="path11"
       style="fill:#000000;stroke-width:0.378497"
       inkscape:transform-center-y="-3.9855493"
       d="m 111.35066,130.09906 -6.32313,23.91398 h 12.64628 z m 12.67831,0 -6.32265,23.91398 h 12.64579 12.4977 12.3166 12.49719 l -6.32314,-23.91398 -6.2486,23.63216 -6.24859,-23.63216 -6.15805,23.29024 -6.15855,-23.29024 -6.2486,23.63323 z m -75.369437,0.18792 -6.323145,23.91398 h 12.646288 z m 12.678305,0 -6.322643,23.91398 h 12.645787 12.497702 12.316598 12.497208 l -6.32315,-23.91398 -6.248601,23.63216 -6.248601,-23.63216 -6.158048,23.29024 -6.15855,-23.29024 -6.2486,23.63327 z"
       inkscape:transform-center-x="3.1377832e-06" />
    <path
       id="path15"
       style="fill:#000000;stroke-width:0.347563"
       d="m 96.191423,153.87692 -8.80947,8.84183 8.714054,8.74676 -8.714054,8.74623 8.80947,8.84184 h 17.617157 l 8.80947,-8.84184 -8.71406,-8.74623 8.71406,-8.74676 -8.80947,-8.84183 z m 0,35.18958 -8.80947,8.84184 8.714054,8.74675 -8.714054,8.74624 8.683735,8.71626 -8.683735,8.71575 8.714054,8.74675 -8.714054,8.74624 8.80947,8.84183 h 17.617157 l 8.80947,-8.84183 -8.71406,-8.74624 8.71406,-8.74675 -8.68374,-8.71575 8.68374,-8.71626 -8.71406,-8.74624 8.71406,-8.74675 -8.80947,-8.84184 z" />
  </g>
</svg>
