<?xml version="1.0" encoding="UTF-8" standalone="no"?>
<!-- Created with Inkscape (http://www.inkscape.org/) -->

<svg
   width="210mm"
   height="297mm"
   viewBox="0 0 210 297"
   version="1.1"
   id="svg1"
   inkscape:version="1.4 (86a8ad7, 2024-10-11)"
   sodipodi:docname="h.svg"
   xmlns:inkscape="http://www.inkscape.org/namespaces/inkscape"
   xmlns:sodipodi="http://sodipodi.sourceforge.net/DTD/sodipodi-0.dtd"
   xmlns="http://www.w3.org/2000/svg"
   xmlns:svg="http://www.w3.org/2000/svg">
  <sodipodi:namedview
     id="namedview1"
     pagecolor="#ffffff"
     bordercolor="#000000"
     borderopacity="0.25"
     inkscape:showpageshadow="2"
     inkscape:pageopacity="0.0"
     inkscape:pagecheckerboard="0"
     inkscape:deskcolor="#d1d1d1"
     inkscape:document-units="mm"
     inkscape:zoom="1.4142136"
     inkscape:cx="290.97444"
     inkscape:cy="1030.6081"
     inkscape:window-width="1920"
     inkscape:window-height="991"
     inkscape:window-x="-9"
     inkscape:window-y="-9"
     inkscape:window-maximized="1"
     inkscape:current-layer="layer1" />
  <defs
     id="defs1" />
  <g
     inkscape:label="Katman 1"
     inkscape:groupmode="layer"
     id="layer1">
    <rect
       style="fill:#c8c8fa;fill-opacity:1;stroke-width:0.345633"
       id="rect1"
       width="209.81458"
       height="298.44998"
       x="0"
       y="-1.0583334" />
    <path
       sodipodi:type="spiral"
       style="fill:#000000;fill-rule:evenodd;stroke:#000000;stroke-width:0.264583"
       id="path22"
       sodipodi:cx="56.885414"
       sodipodi:cy="155.31041"
       sodipodi:expansion="1.5"
       sodipodi:revolution="20.1"
       sodipodi:radius="46.121059"
       sodipodi:argument="-43.261848"
       sodipodi:t0="0.20999999"
       d="m 54.610183,159.1213 c -2.256374,-1.17968 -3.050614,-4.06774 -1.879188,-6.29122 1.289992,-2.44853 4.430704,-3.30838 6.845666,-2.02736 2.645864,1.4035 3.573046,4.80388 2.179201,7.41551 -1.520123,2.84824 -5.187013,3.84443 -8.000367,2.33462 -3.055532,-1.63977 -4.12237,-5.57983 -2.493538,-8.59984 1.762388,-3.26763 5.982112,-4.40671 9.21359,-2.65588 3.484428,1.88789 4.697328,6.39363 2.821577,9.84129 -2.01621,3.70583 -6.814187,4.99407 -10.482633,2.99056 -3.931727,-2.14729 -5.296821,-7.24359 -3.162775,-11.13734 2.281091,-4.16204 7.681666,-5.60546 11.805142,-3.33815 4.396698,2.41754 5.919882,8.12824 3.516645,12.48579 -2.556589,4.6356 -8.583154,6.23997 -13.179036,3.69819 -4.878693,-2.6982 -6.56565,-9.04626 -3.88275,-13.88467 2.842312,-5.12589 9.517414,-6.8968 14.602459,-4.07026 5.377131,2.98889 7.233353,9.99648 4.260696,15.33222 -3.137906,5.63234 -10.483332,7.5752 -16.073744,4.45399 -5.891485,-3.2893 -7.92229,-10.97784 -4.650125,-16.82686 3.443056,-6.15448 11.479905,-8.27452 17.591381,-4.84904 6.421278,3.59912 8.631828,11.9894 5.05071,18.36715 -3.757471,6.69183 -12.506214,8.99414 -19.153996,5.25509 -6.966071,-3.91807 -9.361382,-13.03026 -5.462147,-19.95177 4.080885,-7.24397 13.561422,-9.7335 20.760328,-5.67185 7.525463,4.24589 10.110418,14.09962 5.884161,21.57952 -4.413059,7.81052 -14.644758,10.49209 -22.40922,6.09905 -8.099081,-4.58235 -10.878442,-15.19675 -6.316491,-23.24928 4.753764,-8.39112 15.755509,-11.26943 24.099598,-6.53645 8.686581,4.92725 11.664996,16.32095 6.758899,24.96003 -5.102794,8.98543 -16.893015,12.06508 -25.83047,6.98381 -9.287642,-5.28037 -12.469651,-17.47161 -7.211159,-26.7108 5.459955,-9.59316 18.056659,-12.87864 27.600907,-7.44092 9.901966,5.64153 13.29201,18.64811 7.673064,28.50069 -5.825067,10.21402 -19.245868,13.70971 -29.410046,7.90757 -10.529271,-6.01055 -14.1317,-19.84989 -8.144416,-30.32887 6.19796,-10.84771 20.460104,-14.55793 31.257076,-8.38357 11.169294,6.38727 14.988369,21.07644 8.625028,32.19456 -6.578475,11.49399 -21.69886,15.42296 -33.141234,8.86875 -11.821786,-6.77155 -15.861687,-22.32729 -9.114726,-34.09701 6.966463,-12.15264 22.96166,-16.30449 35.061802,-9.36293 12.486515,7.16321 16.751343,23.60193 9.613345,36.03552 -7.361782,12.8234 -24.248054,17.20221 -37.018102,9.86595 -13.16326,-7.56215 -17.657042,-24.89996 -10.120729,-38.00945 7.7643,-13.50607 25.557618,-18.11582 39.009495,-10.37766 13.851809,7.96822 18.578504,26.22096 10.636728,40.01816 -8.17389,14.20045 -26.889948,19.04507 -41.035372,10.89792 -14.551963,-8.3813 -19.515465,-27.56453 -11.161201,-42.06106 8.590432,-14.90634 28.244663,-19.98968 43.095154,-11.42658 15.263536,8.80128 20.467672,28.9303 11.694015,44.13759 -9.013812,15.62355 -29.621397,20.94942 -45.188294,11.96351 -15.986345,-9.22803 -21.434884,-30.31791 -12.235039,-46.24721 9.443921,-16.35191 31.019804,-21.92404 47.314268,-12.50859 16.720217,9.66147 22.416872,31.72703 12.784152,48.38941 -9.880657,17.09125 -32.439555,22.91334 -49.472577,13.0617 C 20.670905,176.61336 14.722478,153.5575 24.79466,136.15113 35.118578,118.30971 58.67499,112.23404 76.457401,122.5284 94.677906,133.07636 100.88171,157.1369 90.363579,175.29802 79.589967,193.90027 55.02175,200.2331 36.479273,189.48959 17.49266,178.48874 11.029923,153.40933 22.000401,134.48286 33.230049,115.10927 58.824163,108.51575 78.137235,119.71477 97.900403,131.17478 104.62558,157.28707 93.196448,176.98934 81.50451,197.14466 54.870597,204.00236 34.776544,192.34156 14.226512,180.41616 7.2354384,153.25719 19.129441,132.7688 c 12.1604,-20.94729 39.847829,-28.0726 60.733114,-15.94385 21.347075,12.39692 28.607455,40.61619 16.242445,61.9009 -6.271946,10.79631 -16.921746,18.68057 -29.063405,21.57349"
       transform="matrix(2.3364707,0,0,2.3364707,-29.889496,-258.29177)" />
    <rect
       style="fill:#c8c8fa;fill-opacity:1;stroke-width:0.552583"
       id="rect22"
       width="42.655193"
       height="89.403015"
       x="84.254288"
       y="-1.0583351" />
    <rect
       style="fill:#c8c8fa;stroke-width:0.61819;fill-opacity:1"
       id="rect23"
       width="42.655193"
       height="111.8926"
       x="84.254288"
       y="127.29073" />
  </g>
</svg>
